<svg width="24" height="24" viewBox="0 0 24 24" fill="none" xmlns="http://www.w3.org/2000/svg">
<path fill-rule="evenodd" clip-rule="evenodd" d="M15 5L17 9L20.4855 6.9087C20.9591 6.62455 21.5733 6.77811 21.8575 7.25169C21.9507 7.40711 22 7.58495 22 7.76619V16.2338C22 16.7861 21.5523 17.2338 21 17.2338C20.8188 17.2338 20.6409 17.1846 20.4855 17.0913L17 15L15 19H4C2.89543 19 2 18.1046 2 17V7C2 5.89543 2.89543 5 4 5H15ZM17 11H16L13.929 7H4V17H13.928L16 13H17L20 14.468V9.531L17 11Z" fill="#7E84A3"/>
</svg>
