<svg width="24" height="24" viewBox="0 0 24 24" fill="none" xmlns="http://www.w3.org/2000/svg">
<path fill-rule="evenodd" clip-rule="evenodd" d="M20 4C21.1046 4 22 4.89543 22 6V18C22 19.1046 21.1046 20 20 20H4C2.89543 20 2 19.1046 2 18V6C2 4.89543 2.89543 4 4 4H20ZM20 6H4V18H4.584L10.9477 11.6381L14.421 14.615L20 8.607V6ZM20 11.545L14.5789 17.3847L11.052 14.362L7.414 18H20V11.545ZM7.5 8C8.32843 8 9 8.67157 9 9.5C9 10.3284 8.32843 11 7.5 11C6.67157 11 6 10.3284 6 9.5C6 8.67157 6.67157 8 7.5 8Z" fill="#7E84A3"/>
</svg>
