<svg width="24" height="24" viewBox="0 0 24 24" fill="none" xmlns="http://www.w3.org/2000/svg">
<path fill-rule="evenodd" clip-rule="evenodd" d="M12 2C17.5228 2 22 6.47715 22 12C22 17.5228 17.5228 22 12 22C6.47715 22 2 17.5228 2 12C2 6.47715 6.47715 2 12 2ZM18.3472 7.12973L7.12973 18.3472C8.47861 19.3838 10.1673 20 12 20C16.4183 20 20 16.4183 20 12C20 10.1673 19.3838 8.47861 18.3472 7.12973ZM12 4C7.58172 4 4 7.58172 4 12C4 13.8327 4.61624 15.5214 5.65281 16.8703L16.8703 5.65281C15.5214 4.61624 13.8327 4 12 4Z" fill="#7E84A3"/>
</svg>
