<svg width="24" height="24" viewBox="0 0 24 24" fill="none" xmlns="http://www.w3.org/2000/svg">
<path fill-rule="evenodd" clip-rule="evenodd" d="M17.7903 14.6129L17.7071 14.7071L12.7071 19.7071C12.3466 20.0676 11.7794 20.0953 11.3871 19.7903L11.2929 19.7071L6.29289 14.7071C5.90237 14.3166 5.90237 13.6834 6.29289 13.2929C6.65338 12.9324 7.22061 12.9047 7.6129 13.2097L7.70711 13.2929L11.001 16.586L11 6C11 5.44772 11.4477 5 12 5C12.5523 5 13 5.44772 13 6L13.001 16.584L16.2929 13.2929C16.6534 12.9324 17.2206 12.9047 17.6129 13.2097L17.7071 13.2929C18.0676 13.6534 18.0953 14.2206 17.7903 14.6129Z" fill="#7E84A3"/>
<mask id="mask0_0_11041" style="mask-type:luminance" maskUnits="userSpaceOnUse" x="6" y="5" width="12" height="15">
<path fill-rule="evenodd" clip-rule="evenodd" d="M17.7903 14.6129L17.7071 14.7071L12.7071 19.7071C12.3466 20.0676 11.7794 20.0953 11.3871 19.7903L11.2929 19.7071L6.29289 14.7071C5.90237 14.3166 5.90237 13.6834 6.29289 13.2929C6.65338 12.9324 7.22061 12.9047 7.6129 13.2097L7.70711 13.2929L11.001 16.586L11 6C11 5.44772 11.4477 5 12 5C12.5523 5 13 5.44772 13 6L13.001 16.584L16.2929 13.2929C16.6534 12.9324 17.2206 12.9047 17.6129 13.2097L17.7071 13.2929C18.0676 13.6534 18.0953 14.2206 17.7903 14.6129Z" fill="white"/>
</mask>
<g mask="url(#mask0_0_11041)">
</g>
</svg>
