<svg width="24" height="24" viewBox="0 0 24 24" fill="none" xmlns="http://www.w3.org/2000/svg">
<path fill-rule="evenodd" clip-rule="evenodd" d="M12 2C17.5228 2 22 6.47715 22 12C22 17.5228 17.5228 22 12 22C6.47715 22 2 17.5228 2 12C2 6.47715 6.47715 2 12 2ZM12 4C7.58172 4 4 7.58172 4 12C4 16.4183 7.58172 20 12 20C16.4183 20 20 16.4183 20 12C20 7.58172 16.4183 4 12 4ZM15.694 8.30602C16.102 8.71405 16.102 9.37559 15.694 9.78361L13.4783 11.9993L15.694 14.2164C16.102 14.6244 16.102 15.286 15.694 15.694C15.286 16.102 14.6244 16.102 14.2164 15.694L12.0007 13.4769L9.78361 15.694C9.37559 16.102 8.71405 16.102 8.30602 15.694C7.89799 15.286 7.89799 14.6244 8.30602 14.2164L10.5231 11.9993L8.30602 9.78361C7.89799 9.37559 7.89799 8.71405 8.30602 8.30602C8.71405 7.89799 9.37559 7.89799 9.78361 8.30602L12.0007 10.5217L14.2164 8.30602C14.6244 7.89799 15.286 7.89799 15.694 8.30602Z" fill="#7E84A3"/>
</svg>
