<svg width="24" height="24" viewBox="0 0 24 24" fill="none" xmlns="http://www.w3.org/2000/svg">
<path fill-rule="evenodd" clip-rule="evenodd" d="M19 14C19.5128 14 19.9355 14.386 19.9933 14.8834L20 15V19C20 19.5128 19.614 19.9355 19.1166 19.9933L19 20H5C4.48716 20 4.06449 19.614 4.00673 19.1166L4 19V15C4 14.4477 4.44772 14 5 14C5.51284 14 5.93551 14.386 5.99327 14.8834L6 15V18H18V15C18 14.4872 18.386 14.0645 18.8834 14.0067L19 14ZM12 3C12.5523 3 13 3.44772 13 4L13.001 12.584L16.2929 9.29289C16.6534 8.93241 17.2206 8.90468 17.6129 9.2097L17.7071 9.29289C18.0676 9.65338 18.0953 10.2206 17.7903 10.6129L17.7071 10.7071L12.7071 15.7071C12.3466 16.0676 11.7794 16.0953 11.3871 15.7903L11.2929 15.7071L6.29289 10.7071C5.90237 10.3166 5.90237 9.68342 6.29289 9.29289C6.65338 8.93241 7.22061 8.90468 7.6129 9.2097L7.70711 9.29289L11.001 12.586L11 4C11 3.44772 11.4477 3 12 3Z" fill="#7E84A3"/>
</svg>
