<svg width="24" height="24" viewBox="0 0 24 24" fill="none" xmlns="http://www.w3.org/2000/svg">
<path fill-rule="evenodd" clip-rule="evenodd" d="M15 15C15.7403 15 16.3866 15.4022 16.7324 15.9999L19 16C19.5523 16 20 16.4477 20 17C20 17.5523 19.5523 18 19 18L16.7318 18.0011C16.3858 18.5983 15.7398 19 15 19C14.2602 19 13.6142 18.5983 13.2682 18.0011L5 18C4.44772 18 4 17.5523 4 17C4 16.4477 4.44772 16 5 16L13.2676 15.9999C13.6134 15.4022 14.2597 15 15 15ZM9 10C9.74025 10 10.3866 10.4022 10.7324 10.9999L19 11C19.5523 11 20 11.4477 20 12C20 12.5523 19.5523 13 19 13L10.7318 13.0011C10.3858 13.5983 9.73984 14 9 14C8.26016 14 7.61415 13.5983 7.26819 13.0011L5 13C4.44772 13 4 12.5523 4 12C4 11.4477 4.44772 11 5 11L7.26761 10.9999C7.61343 10.4022 8.25975 10 9 10ZM15 5C15.7403 5 16.3866 5.40217 16.7324 5.99993L19 6C19.5523 6 20 6.44772 20 7C20 7.55228 19.5523 8 19 8L16.7318 8.00108C16.3858 8.59828 15.7398 9 15 9C14.2602 9 13.6142 8.59828 13.2682 8.00108L5 8C4.44772 8 4 7.55228 4 7C4 6.44772 4.44772 6 5 6L13.2676 5.99993C13.6134 5.40217 14.2597 5 15 5Z" fill="#7E84A3"/>
</svg>
