<svg width="24" height="24" viewBox="0 0 24 24" fill="none" xmlns="http://www.w3.org/2000/svg">
<path fill-rule="evenodd" clip-rule="evenodd" d="M16 2C16.5523 2 17 2.44772 17 3V4H20C21.1046 4 22 4.89543 22 6V20C22 21.1046 21.1046 22 20 22H4C2.89543 22 2 21.1046 2 20V6C2 4.89543 2.89543 4 4 4H7V3C7 2.44772 7.44772 2 8 2C8.55228 2 9 2.44772 9 3V4H15V3C15 2.44772 15.4477 2 16 2ZM7 6H4V20H20V6H17V7C17 7.55228 16.5523 8 16 8C15.4477 8 15 7.55228 15 7V6H9V7C9 7.55228 8.55228 8 8 8C7.44772 8 7 7.55228 7 7V6ZM12 10C12.5523 10 13 10.4477 13 11V12.999L15 13C15.5523 13 16 13.4477 16 14C16 14.5523 15.5523 15 15 15L13 14.999V17C13 17.5523 12.5523 18 12 18C11.4477 18 11 17.5523 11 17V14.999L9 15C8.44772 15 8 14.5523 8 14C8 13.4477 8.44772 13 9 13L11 12.999V11C11 10.4477 11.4477 10 12 10Z" fill="#7E84A3"/>
</svg>
