<svg width="24" height="24" viewBox="0 0 24 24" fill="none" xmlns="http://www.w3.org/2000/svg">
<path fill-rule="evenodd" clip-rule="evenodd" d="M16 2C16.5523 2 17 2.44772 17 3V4H20C21.1046 4 22 4.89543 22 6V20C22 21.1046 21.1046 22 20 22H4C2.89543 22 2 21.1046 2 20V6C2 4.89543 2.89543 4 4 4H7V3C7 2.44772 7.44772 2 8 2C8.55228 2 9 2.44772 9 3V4H15V3C15 2.44772 15.4477 2 16 2ZM7 6H4V20H20V6H17V7C17 7.55228 16.5523 8 16 8C15.4477 8 15 7.55228 15 7V6H9V7C9 7.55228 8.55228 8 8 8C7.44772 8 7 7.55228 7 7V6ZM16.3073 10.6783L16.324 10.6951C16.7001 11.0818 16.6995 11.6978 16.3225 12.0837L10.544 18L7.676 15.0511C7.29965 14.6642 7.29965 14.0479 7.676 13.661C8.01122 13.3163 8.54579 13.2827 8.91974 13.5652L9.0281 13.6609V13.6609L10.544 15.219L14.9701 10.6932C15.3352 10.3198 15.9339 10.3132 16.3073 10.6783Z" fill="#7E84A3"/>
</svg>
