<svg width="24" height="24" viewBox="0 0 24 24" fill="none" xmlns="http://www.w3.org/2000/svg">
<path fill-rule="evenodd" clip-rule="evenodd" d="M10 4C9.44772 4 9 3.55228 9 3C9 2.44772 9.44772 2 10 2H14C14.5523 2 15 2.44772 15 3C15 3.55228 14.5523 4 14 4H13L13.001 5.06201C16.9468 5.55454 20 8.92071 20 13C20 17.4183 16.4183 21 12 21C7.58172 21 4 17.4183 4 13C4 8.92037 7.05371 5.55396 11 5.06189L11 4H10ZM12 7C8.68629 7 6 9.68629 6 13C6 16.3137 8.68629 19 12 19C15.3137 19 18 16.3137 18 13C18 9.68629 15.3137 7 12 7ZM12 9C12.5523 9 13 9.44772 13 10V14C13 14.5523 12.5523 15 12 15C11.4477 15 11 14.5523 11 14V10C11 9.44772 11.4477 9 12 9Z" fill="#7E84A3"/>
</svg>
