<svg width="24" height="24" viewBox="0 0 24 24" fill="none" xmlns="http://www.w3.org/2000/svg">
<path fill-rule="evenodd" clip-rule="evenodd" d="M12 2C17.5228 2 22 6.47715 22 12C22 17.5228 17.5228 22 12 22C6.47715 22 2 17.5228 2 12C2 6.47715 6.47715 2 12 2ZM12 4C7.58172 4 4 7.58172 4 12C4 16.4183 7.58172 20 12 20C16.4183 20 20 16.4183 20 12C20 7.58172 16.4183 4 12 4ZM12 6C12.5128 6 12.9355 6.38604 12.9933 6.88338L13 7V11.585L15.7071 14.2929C16.0676 14.6534 16.0953 15.2206 15.7903 15.6129L15.7071 15.7071C15.3466 16.0676 14.7794 16.0953 14.3871 15.7903L14.2929 15.7071L11.2929 12.7071C11.1366 12.5508 11.0374 12.3481 11.0087 12.1314L11 12V7C11 6.44772 11.4477 6 12 6Z" fill="#7E84A3"/>
</svg>
