<svg width="24" height="24" viewBox="0 0 24 24" fill="none" xmlns="http://www.w3.org/2000/svg">
<path fill-rule="evenodd" clip-rule="evenodd" d="M12.291 4.66431L12 5.09083L11.6431 4.56735L11.5555 4.48823C9.37118 2.51435 5.70958 2.65263 3.61316 4.76364C1.46228 6.9295 1.46228 10.4277 3.61316 12.5935L12 20.9998L20.3868 12.5935C22.5377 10.4277 22.5377 6.9295 20.3868 4.76364C18.1861 2.54759 14.5504 2.36561 12.4059 4.52507L12.291 4.66431ZM19.0934 6.27037C20.3487 7.69079 20.3004 9.8801 18.9486 11.2414L12.098 18.1392L11.899 18.1363L5.05145 11.2414C3.64952 9.82969 3.64952 7.52749 5.05145 6.11579L5.19975 5.97533C6.51884 4.80005 8.69641 4.71757 10.0429 5.7857L10.114 5.84585L12 8.61906L13.902 5.82153L13.8441 5.87722C15.1683 4.54383 17.5035 4.66071 18.9486 6.11579L19.0934 6.27037Z" fill="#7E84A3"/>
</svg>
