<svg width="24" height="24" viewBox="0 0 24 24" fill="none" xmlns="http://www.w3.org/2000/svg">
<path fill-rule="evenodd" clip-rule="evenodd" d="M16.1675 3C16.2856 4.0539 15.8526 5.1131 15.2093 5.87397C14.566 6.63532 13.5101 7.22665 12.4765 7.14852C12.3357 6.11548 12.8577 5.03763 13.4538 4.36422C14.1189 3.60377 15.2402 3.03642 16.1675 3ZM19.9962 16.2033C19.8857 16.1596 17.553 15.2371 17.5275 12.5628C17.5071 10.3327 19.3523 9.23662 19.5106 9.14256C19.514 9.14057 19.5166 9.13903 19.5184 9.13794C18.4358 7.58952 16.7497 7.37688 16.1491 7.35245C15.2715 7.26556 14.4201 7.5937 13.7248 7.86168C13.2834 8.03182 12.9049 8.1777 12.6226 8.1777C12.3076 8.1777 11.9184 8.02688 11.4817 7.85765C10.91 7.63607 10.2568 7.38294 9.58218 7.39552C8.01794 7.41773 6.57678 8.28383 5.77034 9.65155C4.14701 12.4057 5.35597 16.4858 6.93795 18.7206C7.71212 19.8131 8.63487 21.0436 9.84659 20.9988C10.3888 20.978 10.7743 20.8176 11.1729 20.6517C11.6325 20.4604 12.1096 20.2619 12.8647 20.2619C13.5861 20.2619 14.0422 20.4547 14.4809 20.6401C14.8997 20.8171 15.3026 20.9874 15.9051 20.9766C17.1604 20.9539 17.9573 19.8615 18.7252 18.7649C19.5847 17.5376 19.9553 16.3481 19.9969 16.2146C19.9983 16.2102 19.9993 16.2069 20 16.2048C19.9995 16.2046 19.9982 16.2041 19.9962 16.2033Z" fill="black"/>
</svg>
