<svg width="24" height="24" viewBox="0 0 24 24" fill="none" xmlns="http://www.w3.org/2000/svg">
<path fill-rule="evenodd" clip-rule="evenodd" d="M4.62825 3H19.3718C20.271 3 21 3.729 21 4.62825V19.3717C21 20.271 20.271 21 19.3717 21H4.62825C3.729 21 3 20.271 3 19.3717V4.62825C3 3.729 3.729 3 4.62825 3ZM8.52052 19C8.78534 19 9 18.797 9 18.5465V10.4535C9 10.203 8.78534 10 8.52052 10H6.47948C6.21466 10 6 10.203 6 10.4535V18.5465C6 18.797 6.21466 19 6.47948 19H8.52052ZM7 9C5.89544 9 5 8.10456 5 7C5 5.89544 5.89544 5 7 5C8.10456 5 9 5.89544 9 7C9 8.10456 8.10461 9 7 9ZM18.574 19C18.8093 19 19 18.8161 19 18.5892V14.7306L19 14.7021C19.0001 13.0188 19.0003 10 15.631 10C14.1008 10 13.3821 10.5402 12.8985 11.2401V10.5446C12.8985 10.3177 12.7078 10.1338 12.4726 10.1338H10.426C10.1907 10.1338 10 10.3177 10 10.5446V18.5892C10 18.8161 10.1907 19 10.426 19H12.4726C12.7079 19 12.8985 18.8161 12.8985 18.5892V14.2759C12.9517 13.6964 13.2162 12.405 14.5203 12.405C16.0778 12.405 16.0469 14.024 16.0339 14.7059C16.0329 14.7602 16.032 14.8085 16.032 14.8496V18.5892C16.032 18.8161 16.2227 19 16.4579 19H18.574Z" fill="#0077B7"/>
</svg>
