<svg width="24" height="24" viewBox="0 0 24 24" fill="none" xmlns="http://www.w3.org/2000/svg">
<path d="M12.1719 12.6214C14.7697 12.5897 16.7298 11.5219 17.556 9.03723C18.3861 6.62394 18.1748 4.39324 15.865 3.46837C14.3701 2.86902 13.8782 3.01589 8.02516 3.01589C7.64469 3.01589 7.3142 3.30566 7.25649 3.68668L5.00451 18.4483C4.96609 18.738 5.17743 19 5.46947 19H8.33641C8.41329 19 8.44015 18.9723 8.4517 18.9008C8.60924 17.8966 9.1435 14.3441 9.27796 13.582C9.50093 12.3436 10.504 12.6493 12.1719 12.6214Z" fill="#002D8A"/>
<path d="M18.9485 8.03975C18.8781 7.9888 18.8507 7.96918 18.8312 8.09062C18.7529 8.53732 18.6318 8.97216 18.4871 9.40708C16.927 13.8656 12.6026 13.4777 10.4912 13.4777C10.2527 13.4777 10.0963 13.6071 10.065 13.846C9.18139 19.3466 9.00543 20.4946 9.00543 20.4946C8.9663 20.7728 9.14227 21 9.41988 21H11.9027C12.2389 21 12.5166 20.7531 12.583 20.4163C12.6104 20.2047 12.5401 20.6553 13.1461 16.8393C13.3259 15.9774 13.7051 16.0675 14.2916 16.0675C17.0678 16.0675 19.2338 14.9391 19.8789 11.6677C20.1332 10.3043 20.0589 8.87031 18.9485 8.03975Z" fill="#019BE1"/>
</svg>
