<svg width="24" height="24" viewBox="0 0 24 24" fill="none" xmlns="http://www.w3.org/2000/svg">
<rect x="3" y="3" width="18" height="18" rx="9" fill="#CB1F26"/>
<path d="M6 11.7409C6 13.3215 6.57934 14.7279 7.82268 15.2514C8.02663 15.3382 8.20961 15.2555 8.26877 15.0225C8.30987 14.8618 8.40714 14.4556 8.45042 14.2856C8.50989 14.0552 8.48786 13.974 8.32314 13.7725C7.96474 13.3363 7.73494 12.7707 7.73494 11.9698C7.73494 9.64735 9.41774 7.56844 12.118 7.56844C14.5091 7.56844 15.8227 9.07595 15.8227 11.0895C15.8227 13.7398 14.6867 15.9778 13.0003 15.9778C12.0687 15.9778 11.3724 15.1821 11.5953 14.2067C11.8628 13.0422 12.3812 11.7859 12.3812 10.9448C12.3812 10.1927 11.9881 9.56583 11.1789 9.56583C10.2267 9.56583 9.4637 10.583 9.4637 11.9448C9.4637 12.8123 9.74668 13.3988 9.74668 13.3988C9.74668 13.3988 8.77212 17.6604 8.60117 18.4067C8.26115 19.8932 8.4754 20.8162 8.5 21C8.5 21 9.4831 21.0223 9.5 21C9.7142 20.7168 10.0372 20.2823 10.3942 18.9436C10.5035 18.5351 11.0207 16.4185 11.0207 16.4185C11.3302 17.0279 12.234 17.5633 13.1956 17.5633C16.0574 17.5633 18 14.8707 18 11.2659C18.0003 8.53939 15.7623 6 12.3627 6C8.13229 6 6 9.12978 6 11.7409Z" fill="white"/>
</svg>
