<svg width="24" height="24" viewBox="0 0 24 24" fill="none" xmlns="http://www.w3.org/2000/svg">
<path d="M12.1137 21C12.0673 21 12.0217 20.9987 11.9761 20.9965H11.976C11.9469 20.9988 11.9166 21 11.8862 21C10.8198 21 10.1354 20.5132 9.47354 20.0423C9.01653 19.7174 8.58531 19.4107 8.07716 19.3255C7.8292 19.2843 7.58241 19.2633 7.34391 19.2633C6.91425 19.2633 6.57528 19.33 6.32783 19.3787C6.17745 19.4083 6.04771 19.4337 5.94913 19.4337C5.84612 19.4337 5.73449 19.4113 5.686 19.2446C5.64384 19.1001 5.61334 18.9602 5.584 18.8248C5.50842 18.4764 5.45474 18.2621 5.30965 18.2397C3.61834 17.9769 3.13428 17.6184 3.02635 17.3641C3.01106 17.3277 3.00237 17.2913 3.0003 17.2552C2.99484 17.1575 3.06361 17.0712 3.15956 17.0555C5.75948 16.6247 6.92537 13.9509 6.97375 13.8374C6.97506 13.8342 6.97651 13.8312 6.97792 13.8281C7.13706 13.5036 7.16821 13.222 7.07086 12.9911C6.89244 12.568 6.31055 12.3821 5.92533 12.2591C5.83109 12.2291 5.74174 12.2007 5.67126 12.1727C4.90262 11.867 4.83866 11.5531 4.86887 11.3932C4.92037 11.1206 5.28237 10.9307 5.57513 10.9307C5.65543 10.9307 5.72609 10.945 5.78553 10.9729C6.13131 11.1359 6.4429 11.2185 6.71178 11.2185C7.08332 11.2185 7.24547 11.0614 7.26531 11.0408C7.25586 10.8638 7.24416 10.6788 7.23221 10.488C7.15477 9.25121 7.05883 7.7144 7.44771 6.83718C8.61323 4.20765 11.0848 4.00339 11.8146 4.00339C11.8333 4.00339 12.1345 4.00018 12.1345 4.00018L12.1777 4C12.9091 4 15.3861 4.20467 16.5523 6.83561C16.9413 7.71331 16.8451 9.25143 16.7675 10.4873L16.7643 10.541C16.7535 10.7131 16.7431 10.8804 16.7345 11.0405C16.753 11.0596 16.9022 11.2041 17.239 11.2171H17.2394C17.4953 11.2072 17.7895 11.1251 18.1123 10.9729C18.207 10.9285 18.312 10.9191 18.3836 10.9191C18.4928 10.9191 18.6036 10.9404 18.6955 10.979L18.7011 10.9813C18.9623 11.0744 19.1333 11.2586 19.137 11.451C19.1404 11.6322 19.0029 11.9047 18.3285 12.1728C18.2586 12.2004 18.1692 12.229 18.0746 12.2591C17.689 12.3822 17.1073 12.568 16.929 12.991C16.8316 13.2218 16.8628 13.5033 17.0218 13.8279C17.0233 13.831 17.0249 13.8341 17.0261 13.8374C17.0745 13.9509 18.2393 16.6238 20.8404 17.0551C20.9364 17.071 21.005 17.1572 20.9997 17.255C20.9975 17.2917 20.9887 17.3286 20.9731 17.3645C20.8658 17.617 20.3821 17.975 18.6903 18.238C18.5521 18.2594 18.4985 18.4406 18.416 18.8206C18.3861 18.9589 18.3557 19.0947 18.3139 19.2376C18.2778 19.3616 18.2011 19.4196 18.0719 19.4196H18.0509C17.9612 19.4196 17.8338 19.4035 17.6723 19.3716C17.3858 19.3152 17.0647 19.2633 16.6561 19.2633C16.4175 19.2633 16.1706 19.2843 15.9225 19.3255C15.4149 19.4107 14.984 19.7168 14.5278 20.0413C13.8647 20.5132 13.1803 21 12.1137 21Z" fill="black"/>
</svg>
