<svg width="24" height="24" viewBox="0 0 24 24" fill="none" xmlns="http://www.w3.org/2000/svg">
<path d="M12.395 8.96552C11.1571 5.43468 16.7285 2.07777 19.024 5.30032C19.024 5.30032 19.9138 5.26746 21.5378 4.36712C21.5378 4.36712 21.1506 5.64023 19.9014 6.48275C19.9014 6.48275 20.8507 6.47639 22 5.94911C22 5.94911 21.2755 7.15812 20.1512 7.96835C20.1512 7.96835 20.1263 9.78182 19.8639 10.9136C19.6016 12.0455 18.7271 15.1965 16.1039 17.4087C13.4806 19.6209 10.2827 20.1097 8.47138 19.981C6.66011 19.8524 4.43659 19.1451 3 18.2319C3 18.2319 6.28537 18.592 8.70875 16.5341C8.70875 16.5341 6.2604 16.6499 5.09864 13.7432C5.09864 13.7432 5.93558 13.8975 6.83501 13.6403C6.83501 13.6403 3.7495 13.0615 3.71205 9.64038C3.71205 9.64038 4.72389 10.1548 5.47339 10.1034C5.47339 10.1034 2.52532 7.78828 4.32417 4.79159C4.32417 4.79159 7.27451 8.81802 12.395 8.96552Z" fill="#1DA1F2"/>
</svg>
